PathFileType	4	(X/Y/Z)	RBDS010\RBDS010runT25.trc
DataRate	CameraRate	NumFrames	NumMarkers	Units	OrigDataRate	OrigDataStartFrame	OrigNumFrames
150.000000	150.000000	4	32	mm	150.000000	2812	4500
Frame#	Time	L.ASIS			L.Heel.Bottom			L.Heel.Lateral			L.Heel.Top			L.Iliac.Crest			L.MT5			L.PSIS			L.Shank.Bottom.Lateral			L.Shank.Bottom.Medial			L.Shank.Top.Lateral			L.Shank.Top.Medial			L.Thigh.Bottom.Lateral			L.Thigh.Bottom.Medial			L.Thigh.Top.Lateral			L.Thigh.Top.Medial			R.ASIS			R.ASY			R.Heel.Bottom			R.Heel.Lateral			R.Heel.Top			R.Iliac.Crest			R.MT1			R.MT5			R.PSIS			R.Shank.Bottom.Lateral			R.Shank.Bottom.Medial			R.Shank.Top.Lateral			R.Shank.Top.Medial			R.Thigh.Bottom.Lateral			R.Thigh.Bottom.Medial			R.Thigh.Top.Lateral			R.Thigh.Top.Medial			
		X1	Y1	Z1	X2	Y2	Z2	X3	Y3	Z3	X4	Y4	Z4	X5	Y5	Z5	X6	Y6	Z6	X7	Y7	Z7	X8	Y8	Z8	X9	Y9	Z9	X10	Y10	Z10	X11	Y11	Z11	X12	Y12	Z12	X13	Y13	Z13	X14	Y14	Z14	X15	Y15	Z15	X16	Y16	Z16	X17	Y17	Z17	X18	Y18	Z18	X19	Y19	Z19	X20	Y20	Z20	X21	Y21	Z21	X22	Y22	Z22	X23	Y23	Z23	X24	Y24	Z24	X25	Y25	Z25	X26	Y26	Z26	X27	Y27	Z27	X28	Y28	Z28	X29	Y29	Z29	X30	Y30	Z30	X31	Y31	Z31	X32	Y32	Z32	

2813	18.74666666666667	2345.829999238875	953.9462897021252	870.5631379415381	1788.028799029483	159.3379621645641	969.7037294607827	1818.267147690493	154.1287488276648	922.9629645936188	1824.798220874912	194.5904725588255	967.1786919256455	2314.567158428302	1047.71885640006	841.4219976965849	1938.481509117437	57.57337041188013	895.1097201178311	2183.869047003688	1016.917622629829	943.5037790464784	1911.92452909169	238.6151288422252	904.462170205936	1888.194052625102	262.2499296950505	946.6760279945626	1947.92247544584	307.3285973024435	884.1763443449446	1924.676089083614	331.9200855032726	926.5689244057705	2140.587798488957	583.3480178493019	844.2862905828508	2088.520660979477	594.666785177452	894.4521395781325	2147.15304909223	692.8675478914882	830.8173823728712	2100.16409773804	703.6769077556165	880.105197646187	2354.227520820588	962.3589478332877	1095.553329160659	2454.806453228737	128.4230347254194	1063.554390309443	2267.27932914566	115.3429277290701	1056.782234354619	2298.739121637678	130.141433108011	1099.986845082506	2288.670505275128	159.5732494636975	1054.212964454173	2283.12722799257	1048.635304912154	1139.012608339006	2472.375852307183	71.82139769604119	1014.337177807083	2452.854288383903	77.6483336356911	1125.774767124839	2183.928811189616	1018.464675505239	1042.762659281292	2374.691058481831	240.0346820023489	1105.845269697927	2333.968237059868	252.9394150987135	1076.384173503731	2390.170746138333	322.906280395526	1116.35812091855	2347.198865821437	332.0278016397179	1084.621065109424	2427.475417862779	625.7679634450279	1135.395645162172	2374.194588634637	589.9468709437034	1098.27821806287	2358.870388807142	709.4064380496294	1149.52665221074	2307.089651770076	676.3957893429663	1117.330146018644	
2814	18.75333333333333	2347.910439199821	956.6086298200489	871.211590845151	1780.954583129458	171.2883218012381	968.1941910008464	1810.903555169955	164.2035199728244	921.5326117076571	1819.574048937057	204.4661516182879	965.5509567409478	2317.95419505003	1051.074528696715	842.1751555536985	1925.869624563029	60.66041855109312	894.482598638636	2186.090989152505	1020.520584600831	943.0076593566567	1905.461636389802	245.0707622593542	903.3296093433901	1882.233927741905	268.3330230611267	946.0020547979765	1941.773766892969	313.7957795289829	883.543431078581	1918.880114908477	338.0643921842638	926.2792287765285	2137.142446752231	588.1945820432891	844.5779521198147	2085.464712814051	600.2604043701443	894.9773103931153	2145.291169762349	697.6506505873248	831.2292084116402	2098.750002290933	709.1091990244654	880.783273698243	2355.22878343326	965.5690419501099	1095.885776896396	2474.711535015003	126.5317826784075	1061.722457889149	2287.908516854745	103.9433574782981	1054.819275575301	2318.620326140809	119.341626136432	1098.266701030144	2306.942266128963	149.2373224383456	1053.246146611475	2284.072132212681	1052.588348310799	1138.890640996915	2494.82550314405	72.01262249510091	1011.206547641538	2475.229148843881	74.15238729878649	1122.774965420231	2185.684716117402	1022.201973242965	1042.288655110024	2387.665867954548	234.0946225468368	1104.976272315729	2346.316516524857	244.8063561437608	1075.54317832518	2398.103760107861	317.5786693065844	1116.250638053449	2354.794911811741	324.3891954486206	1084.408993960615	2423.561956031765	625.9068245778379	1135.39761288568	2369.590253188524	590.8045372661245	1098.847842078505	2356.766109374733	710.8822644011595	1149.31918276085	2304.268282836117	678.6529866793855	1117.553564185907	
2815	18.76	2349.717179615813	959.0496659799074	871.6450900978772	1774.629552557758	183.3645773792723	966.5568220196191	1804.210099426625	174.453122158601	919.994130451336	1815.001013064398	214.3958512382513	963.8191918536403	2320.815147697066	1054.092500706964	842.8919806658403	1913.739628679756	64.21437775727182	893.8329213790734	2188.109544889524	1023.811891802587	942.711454545502	1899.727617136517	251.3437302796276	902.0874133429638	1876.950976957443	274.325321095536	945.1326655542454	1936.530327047529	319.973492176697	882.8081809059847	1913.955563094548	344.0148131908154	925.8012474693992	2134.673858274955	592.4397819506471	844.8786304853992	2083.297636593717	605.1289064904279	895.4268210691291	2144.132582075673	701.813544117112	831.6001664583257	2097.926435248011	713.8227956598005	881.3128233943529	2356.263486374545	968.2454324324028	1095.994830857886	2493.785182072238	125.2770175275038	1060.053704869526	2308.057328141501	93.65578877833244	1052.625931940256	2337.987627896577	109.5152758741215	1096.363403403841	2324.794335213743	139.8436404879108	1052.101193439247	2285.393265393932	1055.965465887694	1138.782283148692	2516.271818133256	72.95159611259822	1008.283115865011	2496.651816452993	71.37636437316007	1119.877477427768	2187.411977438045	1025.550559583732	1041.999431836161	2400.089833642751	228.6414194342082	1104.083408094905	2358.259760004909	237.1716755964981	1074.687360154602	2405.552258525517	312.4156331341409	1116.164351573598	2362.019489876641	316.9523430266698	1084.254219477382	2419.039242592355	625.2663454033531	1135.572154007064	2364.497079777334	591.1463210944156	1099.299591403954	2354.191868608691	711.6730880664434	1149.28378625044	2301.082146947192	680.4170132141843	1117.675133447715	
2816	18.76666666666667	2351.261866654793	961.2451039709943	871.8746204230509	1768.98823887233	195.4751847355913	964.8434381670808	1798.126470195243	184.8065095395826	918.391434472598	1810.992545650804	224.3184200404943	962.0295022195395	2323.113431550366	1056.764366720698	843.5622465210218	1902.088122096132	68.24118332672835	893.1735112337074	2189.906812741318	1026.75072931292	942.6036961194037	1894.665511688251	257.4159455969015	900.7702582854281	1872.283832662927	280.2354591922607	944.0889682741872	1932.162671109239	325.8166516328482	881.9913329171961	1909.875924455273	349.7497398443068	925.1481073834776	2133.250072719137	595.9668522973604	845.1930738233751	2082.05908324457	609.1608656801557	895.7839807605218	2143.739650995547	705.247476343419	831.9218150306573	2097.723325533842	717.7151803063655	881.6620195000369	2357.304966305882	970.3797620193682	1095.906992303879	2511.726356975566	124.5808426837597	1058.567196060614	2327.35608165328	84.58898083293704	1050.180462353805	2356.484127040033	100.7657161159898	1094.259877463803	2341.90506588797	131.5000096732465	1050.739653777757	2287.030914872291	1058.722423918164	1138.69625979577	2536.41391959731	74.50318847881813	1005.621742252252	2516.775115627208	69.25863332445414	1117.124987289137	2189.067716768385	1028.468697523221	1041.889600332483	2411.760359288225	223.7338960060248	1103.150546945508	2369.596679850708	230.1302378655859	1073.784833974441	2412.39406684596	307.5052724745079	1116.052596360786	2368.747919986864	309.8450593450616	1084.099222302573	2413.991246462857	623.9308463183796	1135.932331500704	2359.025547425207	591.0369236452841	1099.598581274595	2351.166757906649	711.8177121520099	1149.435363513124	2297.589427796113	681.7102541544598	1117.67950073727	
